#!OML:ASF E:\Style4\Style4.ASF
:FULLY-SPECIFIED
:DEGREES
1512
root -1.34935 17.2533 -1.23456 3.05257 -0.0149289 0.0476473
lowerback 12.0166 0.447571 -5.65976
upperback 6.85688 -0.0129426 -4.5905
thorax 0.465233 -0.0763158 -1.59985
lowerneck 2.65729 0.8057 -6.5231
upperneck -3.78426 1.37121 13.3645
head -1.68366 0.498478 5.07759
rclavicle 1.27222e-014 2.22639e-014
rhumerus 4.09634 -3.9802 -0.29484
rradius 42.2988
rwrist 12.8778
rhand -0.156545 12.4172
rfingers 7.12502
rthumb 25.4404 -15.905
lclavicle 1.27222e-014 2.22639e-014
lhumerus 2.45941 4.79869 46.3669
lradius 55.285
lwrist 1.49323
lhand -12.3058 35.1019
lfingers 7.12502
lthumb 13.7623 64.6267
rfemur -23.7622 -2.90128 24.331
rtibia 44.8785
rfoot -23.81 -14.9395
rtoes -6.62133
lfemur -23.212 2.45723 -13.7642
ltibia 43.9571
lfoot -22.0992 5.96492
ltoes -19.2766
1513
root -1.33886 17.2498 -1.2362 3.00978 0.283141 0.196433
lowerback 11.9912 0.523092 -5.5328
upperback 7.00279 0.11356 -4.56336
thorax 0.630556 -0.013387 -1.65716
lowerneck 2.65538 0.638722 -6.55326
upperneck -3.8504 1.14872 13.343
head -1.67962 0.387123 5.08175
rclavicle 8.74653e-015 3.65764e-014
rhumerus 4.93432 -3.81345 -0.228885
rradius 42.6652
rwrist 13.3945
rhand 0.608603 12.3005
rfingers 7.12502
rthumb 26.1732 -15.9152
lclavicle 8.74653e-015 3.65764e-014
lhumerus 1.67233 4.70669 46.5252
lradius 55.8161
lwrist 0.145837
lhand -11.6093 35.1816
lfingers 7.12502
lthumb 14.4334 64.6597
rfemur -23.7863 -3.04185 24.1273
rtibia 45.0309
rfoot -23.8476 -15.0962
rtoes -6.80428
lfemur -23.263 2.3318 -13.9783
ltibia 43.9753
lfoot -22.0397 5.82166
ltoes -19.1067
1514
root -1.32758 17.2477 -1.23692 2.92833 0.528603 0.278799
lowerback 11.9177 0.624702 -5.35804
upperback 7.20047 0.286669 -4.48847
thorax 0.876024 0.0719008 -1.69578
lowerneck 2.67507 0.44913 -6.56348
upperneck -3.93407 0.895491 13.2837
head -1.68091 0.259782 5.07146
rclavicle 3.33958e-014 3.49861e-014
rhumerus 5.9122 -3.8927 -0.223283
rradius 42.7844
rwrist 14.1782
rhand 1.11683 12.5635
rfingers 7.12502
rthumb 26.6597 -15.5792
lclavicle 3.33958e-014 3.49861e-014
lhumerus 0.947628 4.53189 46.7332
lradius 56.3534
lwrist -0.94839
lhand -11.1396 35.4865
lfingers 7.12502
lthumb 14.8861 64.9317
rfemur -23.7616 -3.15553 23.9878
rtibia 45.168
rfoot -23.8338 -15.2823
rtoes -7.03286
lfemur -23.2395 2.20995 -14.1182
ltibia 43.9821
lfoot -21.99 5.72861
ltoes -18.8403
1515
root -1.31594 17.2482 -1.23809 2.82851 0.767623 0.273763
lowerback 11.882 0.722224 -5.09523
upperback 7.38725 0.45791 -4.38491
thorax 1.08982 0.159626 -1.75296
lowerneck 2.85958 0.256762 -6.46544
upperneck -4.15946 0.646138 13.1217
head -1.75127 0.126001 5.01187
rclavicle 1.90833e-014 1.74931e-014
rhumerus 7.24901 -4.0445 -0.286715
rradius 42.1966
rwrist 15.0131
rhand 1.25617 13.089
rfingers 7.12502
rthumb 26.793 -15.0333
lclavicle 1.90833e-014 1.74931e-014
lhumerus 0.145274 4.12694 46.8818
lradius 56.9651
lwrist -1.51817
lhand -10.8986 35.6176
lfingers 7.12502
lthumb 15.1182 65.0455
rfemur -23.7094 -3.23615 23.9419
rtibia 45.3036
rfoot -23.8463 -15.4214
rtoes -7.23257
lfemur -23.1861 2.10123 -14.1535
ltibia 43.9673
lfoot -21.9693 5.63951
ltoes -18.8161
1516
root -1.30366 17.2474 -1.23863 2.74219 1.02541 0.411661
lowerback 11.879 0.808321 -4.97044
upperback 7.53754 0.595095 -4.32068
thorax 1.24908 0.228398 -1.77047
lowerneck 3.00525 0.0822384 -6.4486
upperneck -4.30654 0.414842 13.0414
head -1.79498 0.00404947 4.99085
rclavicle 1.43125e-014 -3.18055e-014
rhumerus 8.43371 -3.8246 -0.240169
rradius 41.9521
rwrist 15.431
rhand 1.37821 13.2486
rfingers 7.12502
rthumb 26.9098 -14.8558
lclavicle 1.43125e-014 -3.18055e-014
lhumerus -0.736279 3.48548 47.0039
lradius 57.5808
lwrist -1.32188
lhand -11.3012 35.5328
lfingers 7.12502
lthumb 14.7303 64.9894
rfemur -23.6616 -3.35143 23.736
rtibia 45.4518
rfoot -23.8972 -15.5436
rtoes -7.52442
lfemur -23.1362 1.97689 -14.3675
ltibia 43.9549
lfoot -21.9005 5.69171
ltoes -19.3659
1517
root -1.29035 17.2431 -1.23886 2.65895 1.22551 0.591492
lowerback 11.87 0.91804 -4.88894
upperback 7.68137 0.75887 -4.25652
thorax 1.40492 0.309255 -1.76631
lowerneck 3.14323 -0.0972137 -6.46571
upperneck -4.43408 0.172826 12.9498
head -1.83085 -0.121543 4.97244
rclavicle 1.59028e-015 -6.36111e-015
rhumerus 8.99454 -3.11407 0.0778794
rradius 42.7679
rwrist 15.2188
rhand 1.72601 12.8872
rfingers 7.12502
rthumb 27.2425 -15.1654
lclavicle 1.59028e-015 -6.36111e-015
lhumerus -1.6044 2.8147 47.1892
lradius 58.1917
lwrist -0.872146
lhand -11.974 35.515
lfingers 7.12502
lthumb 14.0821 65.0178
rfemur -23.6365 -3.41667 23.481
rtibia 45.6104
rfoot -23.9385 -15.6855
rtoes -7.62188
lfemur -23.0857 1.86638 -14.6227
ltibia 43.971
lfoot -21.9336 5.71599
ltoes -19.6094
